<?xml version="1.0" encoding="utf-8"?>
<!-- Generator: Adobe Illustrator 22.0.1, SVG Export Plug-In . SVG Version: 6.00 Build 0)  -->
<svg version="1.1" id="Layer_1" xmlns="http://www.w3.org/2000/svg" xmlns:xlink="http://www.w3.org/1999/xlink" x="0px" y="0px"
	 width="512px" height="512px" viewBox="0 0 512 512" enable-background="new 0 0 512 512" xml:space="preserve">
<g>
	<path fill="#FFFFFF" d="M403.6,512H108.4C48.8,512,0,463.2,0,403.6V108.4C0,48.8,48.8,0,108.4,0h295.2C463.2,0,512,48.8,512,108.4
		v295.2C512,463.2,463.2,512,403.6,512z"/>
	<linearGradient id="SVGID_1_" gradientUnits="userSpaceOnUse" x1="21.2195" y1="256" x2="490.7805" y2="256">
		<stop  offset="0" style="stop-color:#1E88E5"/>
		<stop  offset="1" style="stop-color:#3884FF"/>
	</linearGradient>
	<path fill="none" stroke="url(#SVGID_1_)" stroke-width="20" stroke-miterlimit="10" d="M399.1,480.8H112.9
		c-44.9,0-81.7-36.8-81.7-81.7V112.9c0-44.9,36.8-81.7,81.7-81.7h286.2c44.9,0,81.7,36.8,81.7,81.7v286.2
		C480.8,444,444,480.8,399.1,480.8z"/>
	<g>
		<linearGradient id="SVGID_2_" gradientUnits="userSpaceOnUse" x1="274.1899" y1="289.0654" x2="435.3056" y2="289.0654">
			<stop  offset="0" style="stop-color:#1E88E5"/>
			<stop  offset="1" style="stop-color:#3884FF"/>
		</linearGradient>
		<path fill="url(#SVGID_2_)" d="M412,163.9l15.3,56.4h-60c-6.5,0-11.3,0.8-14.4,2.3c-3.1,1.5-4.6,3.6-4.6,6.3
			c0,3.1,1.1,6.1,3.4,9.2c3.3,3.7,5.6,6.3,7,8l45.9,50.8c10.2,11.4,17.3,20.4,21.1,26.9c6.3,10.6,9.5,21.4,9.5,32.4
			c0,14.9-4.3,27.3-12.9,37.3c-11.8,13.9-30,20.8-54.5,20.8h-76l-15.3-55.7h59.4h4.3c4.9,0,9.4-0.7,13.5-2.1c4.1-1.4,6.1-3.8,6.1-7
			c0-3.1-1.1-6.1-3.4-9.2c-3.3-3.7-5.6-6.3-7-7.9L304.8,282c-12.7-14.7-20.9-26.2-24.8-34.6c-3.9-8.4-5.8-16.8-5.8-25.4
			c0-14.7,4.4-27.1,13.2-37.3c11.8-13.9,29.9-20.8,54.2-20.8H412z"/>
	</g>
	<g>
		<linearGradient id="SVGID_3_" gradientUnits="userSpaceOnUse" x1="72.1899" y1="223.0654" x2="289.6655" y2="223.0654">
			<stop  offset="0" style="stop-color:#1E88E5"/>
			<stop  offset="1" style="stop-color:#3884FF"/>
		</linearGradient>
		<path fill="url(#SVGID_3_)" d="M205.1,348.2H84.4V162.3H150v129.6h37.4c8.8,0,15-0.6,18.7-1.8c6.7-2.2,10.1-6.7,10.1-13.4
			c0-10.8-8.1-22.7-24.2-35.8c-12.3-10-25.2-18-38.9-24.1l20.2-15.9c9.6-6.5,16.1-11.4,19.6-14.7c8.2-7.5,12.3-14.3,12.3-20.2
			c0-5.3-2-8.6-6.1-9.8c-4.1-1.2-12.3-1.8-24.5-1.8H72.2l15.3-56.4h118.2c26.5,0,45.9,6.2,58.2,18.7c9.8,9.8,14.7,22.9,14.7,39.5
			c0,11-3.3,21.5-9.8,31.5c-4.9,7.3-12.7,15.6-23.3,24.8c13.7,9.6,24.2,20.2,31.5,31.8c8.4,13.3,12.6,27.5,12.6,42.8
			c0,16.9-5.5,30.6-16.5,41C258.8,341.5,236.2,348.2,205.1,348.2z"/>
	</g>
</g>
<g>
</g>
<g>
</g>
<g>
</g>
<g>
</g>
<g>
</g>
<g>
</g>
<g>
</g>
<g>
</g>
<g>
</g>
<g>
</g>
<g>
</g>
<g>
</g>
<g>
</g>
<g>
</g>
<g>
</g>
</svg>
